PathFileType	4	(X/Y/Z)	Patient4_TMGait_0pt5_01_left_12.trc.trc
DataRate	CameraRate	NumFrames	NumMarkers	Units	OrigDataRate	OrigDataStartFrame	OrigNumFrames
76.502732240437	76.502732240437	5	33	mm	76.502732240437	106	       141
Frame#	Time	L.ASIS			Sacral			L.Shoulder			Chest			R.Shoulder			Neck			R.ASIS			R.Thigh.Superior			R.Thigh.Lateral			R.Thigh.Inferior			R.Patella			L.Thigh.Superior			L.Thigh.Lateral			L.Thigh.Inferior			L.Patella			L.Shank.Superior			L.Shank.Lateral			L.Shank.Inferior			R.Shank.Superior			R.Shank.Lateral			R.Shank.Inferior			R.Heel			R.Midfoot.Superior			R.Midfoot.Lateral			R.Toe			L.Heel			L.Midfoot.Lateral			L.Midfoot.Superior			L.Toe			L.Elbow			L.Wrist			R.Elbow			R.Wrist			
		X1	Y1	Z1	X2	Y2	Z2	X3	Y3	Z3	X4	Y4	Z4	X5	Y5	Z5	X6	Y6	Z6	X7	Y7	Z7	X8	Y8	Z8	X9	Y9	Z9	X10	Y10	Z10	X11	Y11	Z11	X12	Y12	Z12	X13	Y13	Z13	X14	Y14	Z14	X15	Y15	Z15	X16	Y16	Z16	X17	Y17	Z17	X18	Y18	Z18	X19	Y19	Z19	X20	Y20	Z20	X21	Y21	Z21	X22	Y22	Z22	X23	Y23	Z23	X24	Y24	Z24	X25	Y25	Z25	X26	Y26	Z26	X27	Y27	Z27	X28	Y28	Z28	X29	Y29	Z29	X30	Y30	Z30	X31	Y31	Z31	X32	Y32	Z32	X33	Y33	Z33	

106	17.402500000000	774.375348061829	963.836048440362	346.949217427860	568.976273442185	1005.975096760345	515.868421647629	714.438698654989	1436.791400776108	323.337340391739	833.578898085405	1370.968132153976	475.217588214065	762.662939666495	1440.158853182325	657.431066127250	725.951107307586	1498.606499424628	474.449120408829	804.024448838167	945.789487776814	619.783166032685	836.784464471443	741.216992332989	591.925892601151	750.752603876253	636.184077291703	652.056100625160	821.849142720424	581.149616320517	570.681419904983	817.175880165379	493.893799311564	575.280017105764	866.319369546056	786.275233185479	382.030059258269	826.952824691460	656.842840253356	308.168521946454	931.650203114074	599.959464140205	371.237116287944	951.837747764938	514.109760334552	366.091779985775	899.801339793803	440.512077746159	357.576542658925	773.343948665836	365.919357093104	308.269713963677	793.820342610563	237.300023756046	362.900007051414	790.608860198823	404.853165306251	581.646347620773	718.251101912883	300.300410461438	639.279629092321	762.812948365760	206.718028402301	576.758556582624	629.333961468774	42.397533848346	537.478776272118	798.467727387050	97.730353922228	584.291132821084	707.990934701562	36.029151976135	618.307528846091	916.380286121172	45.160582503933	619.625783850607	625.413003530512	126.305387801613	400.302883720761	692.301842955226	98.782745507690	319.217456309497	791.731771976800	132.558736246567	340.688010804895	894.836238268293	45.150813488886	311.040141033122	646.270581986773	1081.537032472552	226.825881462898	659.561886384374	822.544151371062	228.809130248943	832.430448324202	1105.679991205692	785.352387100764	1074.748583571638	1037.398646157454	737.288955937834	
107	17.415571428571	772.344810860371	964.318542380455	347.364534419654	568.040288874265	1006.539419461589	517.517821250255	712.895812517084	1436.849210888883	323.965381965230	833.044449077304	1370.988805506447	474.983244347500	763.687137254519	1440.626120069382	657.641845429504	725.602020089811	1498.767997929051	474.860828111566	803.309821158412	945.508633033383	619.958690227698	834.166614232541	740.574647123744	591.214301588194	748.029247749577	636.140079680830	652.314242595180	817.730299441518	580.745727471443	570.315754428631	812.521193308427	493.567977188622	575.119111423567	864.583483993411	787.255522229203	382.245482592873	825.321419939591	657.739239092113	308.290717536479	929.642734225953	601.110011240810	371.941931987974	951.308582491720	517.213013398002	366.626741292101	903.330083452731	442.774231050131	357.668521757506	782.558473378692	360.299772299739	307.501059625140	811.303340218346	232.964758994369	362.263701303269	785.576327026851	404.454913671431	581.527465594144	712.913116862565	300.149580414094	639.310404969073	756.892592624635	206.460016331832	576.654457187074	622.736678646345	42.326498041352	537.489380034498	791.856652496856	97.721882381163	584.267634580705	701.397112135910	36.019089272416	618.349944935354	909.741170800153	45.289126118840	619.659603928078	650.794530947679	110.503561280588	399.034442475489	719.677100864829	87.998783569369	318.110791615194	816.468329244099	128.408013435075	339.919322847641	925.469907466582	48.613471685687	310.518333307833	637.833648457307	1082.850572268384	228.903984234129	645.253751332152	823.739963005830	232.674978932290	841.114385121521	1108.758651594222	785.738746034948	1085.922036393123	1056.193937394322	733.266717058214	
108	17.428642857143	770.386220532017	964.717230872481	347.569379530743	567.236499681047	1007.011226097827	519.060557239775	711.420982475940	1436.902167414067	324.544931207160	832.572346031960	1370.939153034864	474.663820476560	764.770789629201	1440.955877034029	657.777276374694	725.309886081539	1498.870143738941	475.247610622408	802.682764828838	945.156931463593	619.931107337148	831.571722699738	739.890632055777	590.332444488158	745.387522924006	636.040614384917	652.484619675000	813.650162243037	580.294534878937	569.832876065746	807.901115276569	493.219598493268	574.880041568277	862.506461831964	787.671947168372	382.332381562563	823.161098675967	658.222047341711	308.192403814775	926.745124739977	601.552356701425	372.736009852086	949.788787748631	519.816678509312	367.279694786106	906.016149408753	444.841567308108	357.828970327451	791.770195261710	354.666399553979	306.451525230893	828.587338082904	229.249646209736	361.673668496319	780.559491228649	404.029736645223	581.346267442438	707.591761254821	299.982434783875	639.296242225890	750.963392883594	206.170012166595	576.512226763809	616.138521534117	42.241666917589	537.498355011831	785.223670975323	97.686793269056	584.207651595207	694.794687709239	36.000700225637	618.381698252897	903.095264150936	45.408625287616	619.678124488463	676.740492248993	95.763532569141	397.340370284165	747.659269623776	78.340546829354	316.942424834974	841.201341892108	125.272120897413	339.409656601687	955.721926292047	53.416046272538	310.915621602652	629.684701162264	1084.301327621688	230.854622610639	631.892060376476	825.192628987466	236.288006893916	849.611189670620	1111.794324288682	785.798697758020	1095.804482630333	1074.914771289107	728.895730568359	
109	17.441714285714	768.492159690795	965.039042673407	347.562514644111	566.559094165404	1007.401800364596	520.488018363943	710.033652435204	1436.960041413839	325.066427518561	832.167039768251	1370.824705294272	474.257761957906	765.909091474672	1441.156310466305	657.829491974061	725.094469011640	1498.921491652647	475.599795451773	802.142412655184	944.751957350037	619.709305600790	829.023007366720	739.168798916743	589.350486307262	742.795672169612	635.880869689275	652.563937840656	809.627654454242	579.786727160538	569.264442780604	803.328936904804	492.843725269693	574.571779677273	860.084657330309	787.581538514789	382.323677167474	820.552225031855	658.365161526106	307.858064072303	923.095918318403	601.395492369118	373.555626778076	947.413720173773	521.966466618929	367.999938253448	907.904248410718	446.763276483378	358.028833206913	800.855963417334	349.266168755481	305.181419033043	845.368354133307	226.366796436117	361.179052456783	775.565783473841	403.583282037640	581.107530378510	702.288481917768	299.810214844907	639.243010169497	745.027229529486	205.857341736013	576.338544248479	609.539429775736	42.147986022283	537.513851026956	778.572307779612	97.627709840796	584.114856902826	688.185569272398	35.975573938254	618.404760945174	896.446422592705	45.517631487105	619.683594026510	702.754870533382	82.544235306899	395.361735896651	775.704952683966	70.145124074566	315.833436411389	865.450889957061	123.363117442355	339.220134937251	984.992246697620	59.622734278483	312.275199859768	621.933345721310	1085.855706655393	232.700670764694	619.493774603168	826.824778371927	239.622869318218	857.919725119228	1114.766908214363	785.517274156895	1104.409632486662	1093.382279777543	724.214880999896	
110	17.454785714286	766.657074630017	965.296716026003	347.350656205475	565.997337412664	1007.727482878068	521.787858406754	708.753212796679	1437.031241369296	325.519094570492	831.831820155349	1370.654391968382	473.765546246997	767.093627234619	1441.242657478929	657.789789617770	724.971242167501	1498.931833425459	475.904427094544	801.685276988473	944.313074572062	619.307452150967	826.535155762097	738.411824269475	588.332562689158	740.216744190557	635.660012266001	652.547457455281	805.673339837600	579.215840202116	568.638179596791	798.810799822679	492.434240438446	574.200973152781	857.339515899122	787.065992902290	382.238511458391	817.585369885587	658.249211923479	307.287595035192	918.873006311223	600.769972185038	374.316207403135	944.348853370730	523.716086261039	368.717242285698	909.060688138287	448.573316284375	358.220833103938	809.636848664176	344.299339012172	303.777394857423	861.330607505486	224.427711581901	360.808511182800	770.597543856085	403.121974123786	580.815945872551	697.000323374064	299.644572089840	639.155079504218	739.084616836193	205.533189641203	576.140420335879	602.939172855715	42.051804698394	537.542004815457	771.907482023454	97.549268050181	583.996111503221	681.571704674216	35.946182810234	618.420996241274	889.798127523459	45.614460760869	619.679369216341	728.280234201233	71.152290396508	393.284801201429	803.186769699132	63.596664974880	314.898231762394	888.713283550801	122.754564858252	339.360241767907	1012.691227323153	67.139720723874	314.495021223037	614.675834696535	1087.478002405476	234.451146493902	608.078822845911	828.567345880300	242.656363153609	866.033464581559	1117.665720435994	784.879275364429	1111.775290202847	1111.430360964655	719.262642539753	
